<svg xmlns="http://www.w3.org/2000/svg" viewBox="0 0 128 128">
  <defs>
    <linearGradient id="react-query-gradient" x1="0%" y1="0%" x2="100%" y2="100%">
      <stop offset="0%" stop-color="#FF4154"/>
      <stop offset="100%" stop-color="#FFA07A"/>
    </linearGradient>
  </defs>
  <circle cx="64" cy="64" r="56" fill="url(#react-query-gradient)"/>
  <path fill="#FFF" d="M64 24c4.4 0 8 3.6 8 8s-3.6 8-8 8-8-3.6-8-8 3.6-8 8-8zm-32 32c4.4 0 8 3.6 8 8s-3.6 8-8 8-8-3.6-8-8 3.6-8 8-8zm64 0c4.4 0 8 3.6 8 8s-3.6 8-8 8-8-3.6-8-8 3.6-8 8-8zM64 88c4.4 0 8 3.6 8 8s-3.6 8-8 8-8-3.6-8-8 3.6-8 8-8z"/>
  <circle cx="64" cy="64" r="12" fill="#FFF"/>
</svg>
